<svg id="Layer_1" data-name="Layer 1" xmlns="http://www.w3.org/2000/svg" viewBox="0 0 122.88 117.2"><defs><style>.cls-1{fill-rule:evenodd;}</style></defs><title>tester</title><path class="cls-1" d="M41,81.44a2.79,2.79,0,0,1-2.48-3,2.72,2.72,0,0,1,2.48-3H53.3a2.78,2.78,0,0,1,2.48,3,2.72,2.72,0,0,1-2.48,3ZM25.48,21.16a1.67,1.67,0,0,1,2.38,0,1.71,1.71,0,0,1,0,2.4L25,26.46l2.88,2.92a1.69,1.69,0,0,1,0,2.38,1.67,1.67,0,0,1-2.37,0l-2.85-2.9-2.86,2.9a1.67,1.67,0,0,1-2.38,0,1.71,1.71,0,0,1,0-2.4l2.87-2.91-2.87-2.91a1.7,1.7,0,0,1,0-2.39,1.67,1.67,0,0,1,2.37,0l2.85,2.9,2.86-2.9Zm53.18,72c3.5,10.3,18.14,10.69,21.44,0,3.87,3.49,11.43,4.19,15.7,6.56,6.58,3.65,6.26,7.09,7.08,13.63-.21,2.3-1.52,3.63-4.1,3.83H60c-2.58-.2-3.88-1.53-4.1-3.83.72-5.73,1.61-10.56,7.09-13.63C68,96.91,74.43,97,78.66,93.18Zm-3-18.9a2.52,2.52,0,0,0-1.24.39,1,1,0,0,0-.43.49,1.7,1.7,0,0,0-.14.81,8.22,8.22,0,0,0,1.57,3.78L78.71,85a28.35,28.35,0,0,0,4.43,5.82,8.92,8.92,0,0,0,6.25,2.51A9.13,9.13,0,0,0,96,90.72a29.56,29.56,0,0,0,4.56-6.22l3.72-6.13c.76-1.72,1-2.78.74-3.29-.14-.29-.65-.39-1.49-.35a3.76,3.76,0,0,1-2-.06L103,70.42c-6.83-.08-11.5-1.27-17-4.8-1.82-1.16-2.37-2.49-4.18-2.36a6.17,6.17,0,0,0-3.43,1.86,8.92,8.92,0,0,0-2,3.89l1.1,5.3a3.67,3.67,0,0,1-1.88,0Zm29.66-1.53A2.59,2.59,0,0,1,107,74.13c.56,1.12.33,2.79-.72,5.18h0l-.06.13-3.78,6.22a31,31,0,0,1-4.93,6.68,11.3,11.3,0,0,1-8.12,3.22,11.06,11.06,0,0,1-7.72-3.09,29.8,29.8,0,0,1-4.8-6.27l-3.31-5.26a9.86,9.86,0,0,1-1.91-4.89,3.89,3.89,0,0,1,.35-1.8,3.21,3.21,0,0,1,1.2-1.39,4.17,4.17,0,0,1,.87-.44,58.92,58.92,0,0,1-.13-7.77,11.95,11.95,0,0,1,6-9.29,14.79,14.79,0,0,1,3-1.46c6.37-2.31,14.8-1,19.32,3.84a12.8,12.8,0,0,1,3.24,8.12l-.21,6.89Zm-62,38.51a3,3,0,1,1,0,5.94H7a7,7,0,0,1-4.95-2.08,6.87,6.87,0,0,1-2.08-5V7A6.87,6.87,0,0,1,2.08,2.08,6.87,6.87,0,0,1,7,0h85.9a7,7,0,0,1,4.95,2.08A6.87,6.87,0,0,1,100,7V38.37a3,3,0,1,1-5.94,0V7a.9.9,0,0,0-.3-.69A.9.9,0,0,0,93,6H7a.9.9,0,0,0-.69.3A.77.77,0,0,0,6,7V110.36a1,1,0,0,0,1,1l36.27-.1ZM18.63,73.41h10.6a.94.94,0,0,1,1,1v9.12a.94.94,0,0,1-1,1H18.63a.94.94,0,0,1-1-1V74.4a.94.94,0,0,1,1-1ZM41,29a2.78,2.78,0,0,1-2.48-3,2.72,2.72,0,0,1,2.48-3H75.39a2.79,2.79,0,0,1,2.48,3,2.72,2.72,0,0,1-2.48,3ZM21.7,56.87a1.72,1.72,0,0,1-2.28-.3l-.2-.2L16.05,53.1a1.79,1.79,0,0,1,.3-2.57,2.09,2.09,0,0,1,2.77-.1l1.68,1.78,5.55-4.46a1.74,1.74,0,0,1,2.48.6,2,2,0,0,1-.2,2.77L21.7,56.87Zm17.63-2.58a2.78,2.78,0,0,1-2.48-3,2.71,2.71,0,0,1,2.48-3h27.5a2.77,2.77,0,0,1,2.47,3,2.71,2.71,0,0,1-2.47,3Z"/></svg>